<svg width="1340" height="914" viewBox="0 0 1340 914" fill="none" xmlns="http://www.w3.org/2000/svg">
<path fill-rule="evenodd" clip-rule="evenodd" d="M358.328 592.251L403.577 492.953H646.037L838.671 913.594L419.532 804.995L0 913.594L118.876 655.131L154.84 576.793L419.793 0L611.643 419.593H505.06L419.662 233.442L173.671 768.577L419.139 697.444L665 767.529L584.703 592.251H358.328ZM501.791 1.572L920.8 108.206L1339.81 0L1220.67 259.511L1155.81 401.253L920.8 913.594L728.296 493.608H831.871L920.8 680.938L1175.81 145.017L921.192 216.936L666.57 146.982L749.613 320.819H948.655L903.406 419.593H694.033L501.791 1.572Z" fill="white"/>
</svg>
